<svg version="1" xmlns="http://www.w3.org/2000/svg" width="346.667" height="346.667" viewBox="0 0 260.000000 260.000000"><path d="M112.6 1.1C57.7 8.7 14 49.8 2.3 105c-2.5 11.9-2.5 38.2 0 50 5.8 27.3 17.9 49.3 37.6 68.3 18.6 17.9 39.3 28.9 65.1 34.4 11.8 2.5 38.2 2.5 50 0 25.8-5.5 46.5-16.5 65.1-34.4 19.7-19 31.8-41 37.6-68.3 2.5-11.8 2.5-38.2 0-50-5.8-27.3-17.9-49.3-37.6-68.3-18.5-17.8-39.5-29-64.6-34.2-9.5-2-33.2-2.8-42.9-1.4zm31.1 66.8c1.2 19 2.4 35.9 2.7 37.6.8 4.1 4.4 7.4 8.7 8.1 1.9.3 18.7 1.5 37.4 2.7l34 2.2v23l-36.5 2.3c-27.2 1.7-37.1 2.7-38.7 3.8-4.9 3.2-5.1 4.1-7.5 42.4l-2.3 36.5h-23l-2.3-36.5c-2.4-38.3-2.6-39.2-7.5-42.4-1.6-1.1-11.5-2.1-38.7-3.8l-36.5-2.3v-23l34.5-2.2c19-1.2 35.9-2.5 37.6-2.8 1.7-.3 4.1-1.6 5.3-2.9 2.9-3 3.4-7.9 5.6-46.1.9-16 1.8-29.6 2.1-30.3.3-.9 3.1-1.2 11.6-1l11.3.3 2.2 34.4z"/></svg>