<?xml version="1.0" encoding="utf-8"?>
<!-- Generator: Adobe Illustrator 26.0.0, SVG Export Plug-In . SVG Version: 6.00 Build 0)  -->
<svg version="1.1"
	 id="svg3388" xmlns:cc="http://creativecommons.org/ns#" xmlns:dc="http://purl.org/dc/elements/1.1/" xmlns:inkscape="http://www.inkscape.org/namespaces/inkscape" xmlns:rdf="http://www.w3.org/1999/02/22-rdf-syntax-ns#" xmlns:sodipodi="http://sodipodi.sourceforge.net/DTD/sodipodi-0.dtd" xmlns:svg="http://www.w3.org/2000/svg"
	 xmlns="http://www.w3.org/2000/svg" xmlns:xlink="http://www.w3.org/1999/xlink" x="0px" y="0px" viewBox="0 0 1031.5 1031.5"
	 style="enable-background:new 0 0 1031.5 1031.5;" xml:space="preserve">
<style type="text/css">
	.st0{clip-path:url(#SVGID_00000138567530487072605670000006891597551667598760_);}
	.st1{fill:#42B93D;}
	.st2{fill:#FEFEFE;}
	.st3{fill:#53C04E;}
	.st4{fill:#51BF4C;}
	.st5{fill:#53C04F;}
	.st6{fill:#A9DFA7;}
	.st7{fill:#A7DFA5;}
	.st8{fill:#9EDB9B;}
</style>
<sodipodi:namedview  bordercolor="#666666" borderopacity="1" fit-margin-bottom="0" fit-margin-left="0" fit-margin-right="0" fit-margin-top="0" gridtolerance="10" guidetolerance="10" id="namedview3396" inkscape:current-layer="svg3388" inkscape:cx="512" inkscape:cy="583.11111" inkscape:pageopacity="0" inkscape:pageshadow="2" inkscape:window-height="778" inkscape:window-maximized="0" inkscape:window-width="1446" inkscape:window-x="-44" inkscape:window-y="0" inkscape:zoom="0.5625" objecttolerance="10" pagecolor="#ffffff" showgrid="false">
	</sodipodi:namedview>
<g>
	<defs>
		
			<ellipse id="SVGID_1_" transform="matrix(0.7071 -0.7071 0.7071 0.7071 -213.6339 515.7579)" cx="515.8" cy="515.8" rx="512" ry="512"/>
	</defs>
	<clipPath id="SVGID_00000029014898007683237650000003533532080475274683_">
		<use xlink:href="#SVGID_1_"  style="overflow:visible;"/>
	</clipPath>
	<g style="clip-path:url(#SVGID_00000029014898007683237650000003533532080475274683_);">
		<g>
			<path class="st1" d="M473.7,0.2c2.9,0,5.7,0,8.6,0c1.1,1.1,2.3,1.1,3.4,0c3.4,0,6.9,0,10.3,0c4.6,1.4,9.2,1.4,13.7,0
				c3.4,0,6.9,0,10.3,0c4.6,1.4,9.2,1.4,13.7,0c3.4,0,6.9,0,10.3,0c1.1,1.1,2.3,1.1,3.4,0c2.3,0,4.6,0,6.9,0
				c17.3,2.4,34.9,1.4,52.1,4.1c39.2,6.2,76.7,18,113.1,33.6c48.8,20.8,93.1,48.7,133.3,83.1c31.6,27,59.3,57.7,83.7,91.5
				c45.8,63.7,75.3,134.3,89.3,211.5c2.7,15,2.9,30.2,3.7,45.3c2,40.5,1.5,81.1-1.8,121.5c-2.1,26.3-9.2,51.7-16.9,76.9
				C991.3,732,960,790.1,917.6,842.1c-42.1,51.7-92.3,94-150.7,126.5c-50.7,28.2-104.6,47.1-161.6,57.5c-14.9,2.7-30.1,2.8-45.2,3.6
				c-40.3,2-80.6,1.4-120.7-1.8c-25.4-2-50.1-8.7-74.5-16c-61.4-18.5-117.6-47.4-168.1-86.9c-56-43.8-101.6-96.6-136.1-159.1
				c-26.7-48.2-45-99.3-55.4-153.4c-3.3-17.2-2.9-34.8-4.2-52.3c-0.1-1.4,0.2-2.9-0.9-4c0-3.4,0-6.9,0-10.3c1.1-1.1,1.1-2.3,0-3.4
				c0-2.9,0-5.7,0-8.6c1.4-4,1.4-8,0-12c0-4,0-8,0-12c1.4-4,1.4-8,0-12c0-4,0-8,0-12c1.1-1.1,1.1-2.3,0-3.4c0-2.9,0-5.7,0-8.6
				c2.3-12.4,1.9-25.1,2.8-37.6c1.6-22.1,6.8-43.4,13-64.5c20.6-70.5,54.2-134.2,101.7-190.5c49.2-58.3,108.2-103.7,177-136.3
				c39.7-18.8,81.2-32.2,124.5-39.9c16.7-3,33.7-2.7,50.5-3.9C471.1,0.9,472.6,1.3,473.7,0.2z"/>
			<path class="st2" d="M0.2,556.1c4.3,9.2,3.2,19.3,4.8,29c30.6,188.2,131.7,324.4,305.6,401.6c295.7,131.2,639-46.2,707.3-362.6
				c55-254.8-88.1-509.9-333.9-595.4C643.9,14.6,602.6,6.1,560.4,2c-2-0.2-4.7,1-6-1.8c156.7,0,313.4,0,470.1-0.2c5.9,0,7,1.2,7,7
				c-0.2,339.2-0.2,678.3,0,1017.5c0,5.9-1.2,7-7,7c-339.2-0.2-678.3-0.2-1017.5,0c-5.9,0-7-1.2-7-7C0.2,868.4,0.2,712.2,0.2,556.1z
				"/>
			<path class="st2" d="M473.7,0.2c-8.9,4.2-18.7,3.3-28.1,4.6C236.1,35.2,70.8,181.7,16.7,385.2c-7.2,27.1-11.6,54.7-14.6,82.6
				c-0.2,2.1,0.9,4.7-2,6c0-155.4,0-310.8-0.2-466.3C0,1.3,1.3,0,7.5,0C162.9,0.2,318.3,0.2,473.7,0.2z"/>
			<path class="st3" d="M509.8,0.2c-4.6,2.3-9.2,2.6-13.7,0C500.6,0.2,505.2,0.2,509.8,0.2z"/>
			<path class="st3" d="M533.8,0.2c-4.6,2.6-9.2,2.3-13.7,0C524.6,0.2,529.2,0.2,533.8,0.2z"/>
			<path class="st4" d="M0.2,497.7c2.4,4,2.3,8,0,12C0.2,505.8,0.2,501.7,0.2,497.7z"/>
			<path class="st5" d="M0.2,521.8c2.2,4,2.5,8,0,12C0.2,529.8,0.2,525.8,0.2,521.8z"/>
			<path class="st6" d="M485.7,0.2c-1.1,1.8-2.3,2.1-3.4,0C483.4,0.2,484.6,0.2,485.7,0.2z"/>
			<path class="st6" d="M547.5,0.2c-1.1,2.1-2.3,1.8-3.4,0C545.2,0.2,546.4,0.2,547.5,0.2z"/>
			<path class="st7" d="M0.2,482.3c2.1,1.1,1.8,2.3,0,3.4C0.2,484.6,0.2,483.4,0.2,482.3z"/>
			<path class="st8" d="M0.2,542.4c1.6,1.1,2,2.3,0,3.4C0.2,544.6,0.2,543.5,0.2,542.4z"/>
			<path class="st2" d="M514.8,132.5c12.9,0,25.7,0.3,38.6-0.1c5.8-0.2,7.3,1.9,7.6,7.3c2.8,48.5,5.8,97,8.9,145.5
				c2.6,41.9,5.1,83.9,8.2,125.8c1.7,22.9,18.4,39.2,41.1,40.7c71.9,4.7,143.8,9.1,215.6,13.7c18.5,1.2,37.1,2.5,55.6,3.4
				c5.1,0.2,6.9,1.8,6.8,7.1c-0.2,26-0.2,52,0,78c0,5.2-1.7,6.9-6.8,7.2c-57.1,3.4-114.1,7-171.2,10.6c-33.7,2.1-67.3,3.9-101,6.5
				c-22.9,1.8-38.8,17.7-40.3,40.4c-4.2,61-7.9,122.1-11.7,183.1c-1.9,29.7-3.7,59.3-5.4,89c-0.3,5-1.9,6.9-7.1,6.8
				c-26-0.2-52-0.3-78,0c-5.4,0.1-6.7-2-7-6.9c-3.4-57.1-7-114.1-10.5-171.2c-2.1-33.7-4.1-67.3-6.6-101
				c-1.7-22.2-17.5-38.6-39.6-40.2c-50.7-3.7-101.5-6.8-152.3-10c-39.9-2.5-79.9-5-119.8-7.1c-5.9-0.3-7.7-2.3-7.6-8.2
				c0.3-25.2,0.4-50.3,0-75.5c-0.1-6.8,2.1-8.5,8.6-8.9c89.9-5.5,179.7-11.1,269.5-17c23-1.5,39.6-17.7,41.2-40.6
				c3.6-51,6.7-102.1,10-153.1c2.5-39.4,5-78.7,7.1-118.1c0.3-6.2,2.8-7.5,8.4-7.3C489.7,132.7,502.3,132.5,514.8,132.5z"/>
		</g>
	</g>
</g>
</svg>
