<svg xmlns="http://www.w3.org/2000/svg" xmlns:xlink="http://www.w3.org/1999/xlink" version="1.1" x="0px" y="0px" viewBox="0 0 100 100" enable-background="new 0 0 100 100" xml:space="preserve"><path fill="#000000" d="M89.63,41.896c-1.909-9.38-7.13-17.81-14.72-23.75c-0.47-0.38-1.09-0.51-1.68-0.38  c-0.59,0.14-1.08,0.53-1.351,1.08l-11.109,22.85c-0.3,0.62-0.26,1.567,0.1,2.147c0.37,0.59,1.01,1.157,1.7,1.157h25.15  c0.01,0,0.02,0,0.02,0c1.11,0,2-1.117,2-2.217C89.74,42.553,89.7,42.105,89.63,41.896z M65.771,41l8.59-17.67  C79.61,28.06,83.391,34,85.21,41H65.771z"></path><g><path fill="#000000" d="M89.851,49.383C89.48,48.993,88.96,49,88.431,49h-35.66l15.72-32.547c0.23-0.47,0.26-1.128,0.09-1.638   c-0.18-0.5-0.54-0.965-1.02-1.195c-5.49-2.65-11.4-4.027-17.55-4.027c-22.3,0-40.44,18.126-40.44,40.426   c0,22.291,18.14,40.423,40.44,40.423c21.98,0,40.12-17.765,40.42-39.735C90.44,50.167,90.23,49.763,89.851,49.383z M50.01,86.652   c-20.09,0-36.44-16.449-36.44-36.538c0-20.09,16.35-36.495,36.44-36.495c4.871,0,9.56,0.903,13.98,2.753l-16.22,33.336   c-0.3,0.62-0.26,1.56,0.1,2.14c0.37,0.59,1.01,1.151,1.7,1.151h36.78C85.03,71,69.141,86.652,50.01,86.652z"></path></g></svg>